<?xml version="1.0" encoding="utf-8"?>
<!-- Generator: Adobe Illustrator 25.4.1, SVG Export Plug-In . SVG Version: 6.00 Build 0)  -->
<svg version="1.1" id="Layer_1" xmlns="http://www.w3.org/2000/svg" xmlns:xlink="http://www.w3.org/1999/xlink" x="0px" y="0px"
	 viewBox="0 0 24 24" style="enable-background:new 0 0 24 24;" xml:space="preserve">
<style type="text/css">
	.st0{fill:#FFFFFF;}
</style>
<path class="st0" d="M14.5,18.9c1.2-1,2.3-2.2,3.3-3.4c2.2-2.7,3.4-5,3.4-6.9c0-2.4-0.9-4.6-2.6-6.2C17,0.8,14.6,0,12,0
	C9.5,0,7.1,0.8,5.5,2.4C3.8,3.9,2.8,6.1,2.8,8.6c0,1.9,1.1,4.3,3.4,6.9c1,1.2,2.2,2.3,3.4,3.4l0.1,0.1l0.3,1.4H8.7
	c-0.9,0-1.7,0.8-1.7,1.7v0.2C7,23.2,7.7,24,8.7,24h6.7c1,0,1.7-0.8,1.7-1.7v-0.2c0-1-0.8-1.7-1.7-1.7h-1.2L14.5,18.9L14.5,18.9z
	 M20.7,8.6c0,4.1-5.7,9.2-6.5,9.8h-0.3l0,0c0.1-0.2,0.3-0.4,0.4-0.5c0.3-0.4,0.5-0.7,0.8-1.1c0.5-0.8,1-1.6,1.4-2.4
	c0.4-0.8,0.8-1.7,1.1-2.5c0.3-0.9,0.5-1.8,0.6-2.7c0-0.5,0-0.9,0-1.4c0-0.5-0.1-0.9-0.2-1.4c-0.1-0.9-0.4-1.8-0.8-2.6
	c-0.2-0.4-0.4-0.8-0.7-1.2c-0.3-0.4-0.6-0.7-0.9-1.1c-0.1-0.1-0.3-0.2-0.4-0.4C18.6,2.1,20.7,4.9,20.7,8.6z M11.7,18.4l0-0.1
	l-0.1-0.4l-0.2-0.7c-0.1-0.5-0.3-1-0.4-1.4c-0.2-1-0.5-1.9-0.7-2.9S10,10.9,9.9,9.9c0-0.5-0.1-1-0.1-1.5c0-0.5,0-1,0-1.5
	c0-1,0.1-2,0.2-2.9c0.1-0.5,0.2-1,0.3-1.4c0.1-0.5,0.3-0.9,0.6-1.4C11,1,11.1,0.9,11.3,0.7c0,0,0.1-0.1,0.1-0.1c0.2,0,0.4,0,0.6,0
	c0.2,0,0.4,0,0.6,0c0.1,0,0.1,0.1,0.2,0.1c0.2,0.2,0.3,0.4,0.4,0.6c0.2,0.4,0.4,0.9,0.6,1.3c0.1,0.5,0.2,1,0.3,1.4
	c0.1,1,0.2,2,0.2,2.9c0,0.5,0,1,0,1.5c0,0.5,0,1-0.1,1.5c-0.1,1-0.2,2-0.4,2.9s-0.4,1.9-0.6,2.9c-0.1,0.5-0.3,1-0.4,1.4l-0.2,0.7
	l-0.1,0.4l0,0.1L11.7,18.4z M10.9,18.4c-0.1-0.1-0.2-0.2-0.3-0.4c-0.1-0.2-0.3-0.4-0.4-0.5c-0.3-0.4-0.5-0.7-0.8-1.1
	c-0.5-0.7-1-1.5-1.4-2.3c-0.4-0.8-0.8-1.6-1.1-2.5C6.6,10.8,6.4,9.9,6.4,9C6.3,8.1,6.3,7.2,6.4,6.4c0.1-0.9,0.3-1.8,0.7-2.6
	c0.3-0.8,0.8-1.6,1.4-2.2c0.3-0.3,0.6-0.5,0.9-0.7c0.6-0.1,1.2-0.2,1.8-0.3l0,0C11,0.8,10.9,1,10.7,1.2c-0.3,0.4-0.5,0.9-0.6,1.4
	C10,3,9.8,3.5,9.7,4C9.6,5,9.5,6,9.4,7c0,0.2,0,0.5,0,0.7l0,0.4v0.4c0,0.5,0,1,0.1,1.5c0.1,1,0.2,2,0.4,3c0.2,1,0.4,2,0.6,2.9
	c0.1,0.5,0.2,1,0.4,1.4l0.2,0.7l0.1,0.3L10.9,18.4z M13.1,18.1l0.2-0.7c0.1-0.5,0.3-1,0.4-1.4c0.2-1,0.5-1.9,0.6-2.9
	c0.2-1,0.3-2,0.4-3c0-0.5,0.1-1,0.1-1.5l0-0.4l0-0.4c0-0.3,0-0.5,0-0.7c0-1-0.2-2-0.3-3c-0.1-0.5-0.2-1-0.4-1.5
	c-0.1-0.5-0.4-0.9-0.6-1.4c-0.1-0.2-0.3-0.4-0.5-0.6c0.5,0,1.1,0.1,1.6,0.3c0.4,0.2,0.7,0.4,1,0.7C16.2,2.2,16.6,3,17,3.8
	c0.3,0.8,0.5,1.7,0.7,2.6c0.1,0.4,0.1,0.9,0.1,1.3c0,0.4,0,0.9,0,1.3c-0.1,0.9-0.3,1.8-0.6,2.6c-0.3,0.8-0.6,1.7-1.1,2.5
	c-0.4,0.8-0.9,1.6-1.4,2.3c-0.3,0.4-0.5,0.7-0.8,1.1c-0.1,0.2-0.3,0.4-0.4,0.5c-0.1,0.1-0.2,0.2-0.3,0.4H13L13.1,18.1z M3.4,8.6
	c0-2.3,0.8-4.3,2.4-5.8C6.7,2,7.7,1.4,8.9,1C8.7,1.1,8.6,1.3,8.4,1.4c-0.3,0.3-0.6,0.7-0.9,1C7.2,2.8,7,3.2,6.8,3.7
	C6.5,4.5,6.2,5.4,6.1,6.3C6,6.8,5.9,7.2,5.9,7.7c0,0.5,0,0.9,0,1.4C6,10,6.2,10.9,6.5,11.8c0.3,0.9,0.6,1.7,1.1,2.5
	c0.4,0.8,0.9,1.6,1.4,2.4c0.3,0.4,0.5,0.8,0.8,1.1c0.1,0.2,0.3,0.4,0.4,0.5l0,0H9.9C9.1,17.8,3.4,12.7,3.4,8.6z M10.2,18.9l1.6,0
	v1.4h-1.3L10.2,18.9z M16.6,22.1v0.2c0,0.7-0.5,1.2-1.2,1.2H8.7c-0.7,0-1.2-0.5-1.2-1.2v-0.2c0-0.7,0.5-1.2,1.2-1.2h6.7
	C16.1,20.9,16.6,21.4,16.6,22.1L16.6,22.1z M12.3,20.3v-1.4l1.7,0l-0.3,1.4L12.3,20.3z"/>
</svg>
